<svg xmlns="http://www.w3.org/2000/svg" xmlns:xlink="http://www.w3.org/1999/xlink" xmlns:lucid="lucid" width="1760" height="1360"><g transform="translate(0 0)" lucid:page-tab-id="0_0"><path d="M0 0h1760v1360H0z" fill="#fff"/><path d="M760 340c0 11.05-8.95 20-20 20s-20-8.95-20-20 8.95-20 20-20 20 8.95 20 20z" stroke="#000" stroke-width="2"/><path d="M780 640c0 22.1-17.9 40-40 40s-40-17.9-40-40 17.9-40 40-40 40 17.9 40 40z" stroke="#000" stroke-width="2" fill="#fff"/><path d="M760 640c0 11.05-8.95 20-20 20s-20-8.95-20-20 8.95-20 20-20 20 8.95 20 20z" stroke="#000" stroke-width="2"/><path d="M1000 396l80 60-80 60-80-60z" stroke="#000" stroke-width="2" fill="#fff"/><use xlink:href="#a" transform="matrix(1,0,0,1,925,401) translate(16.259259259259252 60.333333333333336)"/><use xlink:href="#b" transform="matrix(1,0,0,1,925,401) translate(44.407407407407405 60.333333333333336)"/><path d="M1000 580l80 60-80 60-80-60z" stroke="#000" stroke-width="2" fill="#fff"/><use xlink:href="#c" transform="matrix(1,0,0,1,925,585) translate(5.037037037037024 60.333333333333336)"/><use xlink:href="#d" transform="matrix(1,0,0,1,925,585) translate(27.25925925925925 60.333333333333336)"/><use xlink:href="#e" transform="matrix(1,0,0,1,925,585) translate(50.222222222222214 60.333333333333336)"/><path d="M1001 560.5h-2V552h2zm0-40.5h-2v-2.75h2zM1001 517.25h-2v-2l1 .75 1-.75zM1000 575.5l-4.64-14.25h9.28z"/><path d="M1000 578.75l-6-18.5h12zm-3.26-16.5l3.26 10.03 3.26-10.03z"/><use xlink:href="#f" transform="matrix(1,0,0,1,978.2592592592592,520) translate(0 21.333333333333336)"/><path d="M1170 402c0-8.28 6.72-15 15-15h200c8.28 0 15 6.72 15 15v108c0 8.28-6.72 15-15 15h-200c-8.28 0-15-6.72-15-15z" stroke="#000" stroke-width="2" fill="#fff"/><use xlink:href="#g" transform="matrix(1,0,0,1,1175,392) translate(2.518518518518519 37.33333333333333)"/><use xlink:href="#h" transform="matrix(1,0,0,1,1175,392) translate(202.66666666666669 37.33333333333333)"/><use xlink:href="#i" transform="matrix(1,0,0,1,1175,392) translate(24.88888888888887 69.33333333333333)"/><use xlink:href="#j" transform="matrix(1,0,0,1,1175,392) translate(32.296296296296276 69.33333333333333)"/><use xlink:href="#k" transform="matrix(1,0,0,1,1175,392) translate(144.74074074074076 69.33333333333333)"/><use xlink:href="#l" transform="matrix(1,0,0,1,1175,392) translate(60.40740740740739 101.33333333333334)"/><path d="M1108.33 457h-26.66v-2h26.66zm42.43 0h-8.43v-2h8.43z"/><path d="M1081.67 457h-3l1.33-1-1.33-1h3zM1165.76 456l-14.26 4.64v-9.28z"/><path d="M1169 456l-18.5 6v-12zm-16.5 3.26l10.03-3.26-10.03-3.26z"/><use xlink:href="#m" transform="matrix(1,0,0,1,1108.3333335,440) translate(0 21.333333333333336)"/><path d="M1200 295c0-8.28 6.72-15 15-15h140c8.28 0 15 6.72 15 15v35.5c0 8.28-6.72 15-15 15h-140c-8.28 0-15-6.72-15-15z" stroke="#000" stroke-width="2" fill="#fff"/><use xlink:href="#n" transform="matrix(1,0,0,1,1205,285) translate(8.92592592592591 33.333333333333336)"/><use xlink:href="#l" transform="matrix(1,0,0,1,1205,285) translate(51.88888888888887 33.333333333333336)"/><path d="M660 96c0-8.28 6.72-15 15-15h130c8.28 0 15 6.72 15 15v108c0 8.28-6.72 15-15 15H675c-8.28 0-15-6.72-15-15z" stroke="#000" stroke-width="2" fill="#fff"/><use xlink:href="#o" transform="matrix(1,0,0,1,665,86) translate(44.77777777777777 21.333333333333336)"/><use xlink:href="#p" transform="matrix(1,0,0,1,665,86) translate(11.37037037037036 53.333333333333336)"/><use xlink:href="#q" transform="matrix(1,0,0,1,665,86) translate(45 85.33333333333334)"/><use xlink:href="#d" transform="matrix(1,0,0,1,665,86) translate(67.22222222222223 85.33333333333334)"/><use xlink:href="#r" transform="matrix(1,0,0,1,665,86) translate(90.18518518518519 85.33333333333334)"/><use xlink:href="#s" transform="matrix(1,0,0,1,665,86) translate(75 117.33333333333334)"/><path d="M740 319v-80.76" stroke="#000" stroke-width="2" fill="none"/><path d="M741 320.13l-1-.13-1 .04V319h2zM744.64 237.5h-9.28l4.64-14.26z"/><path d="M746 238.5h-12l6-18.5zm-9.26-2h6.52L740 226.47z"/><path d="M870 115c0-8.28 6.72-15 15-15h230c8.28 0 15 6.72 15 15v70c0 8.28-6.72 15-15 15H885c-8.28 0-15-6.72-15-15z" stroke="#000" stroke-width="2" fill="#fff"/><use xlink:href="#t" transform="matrix(1,0,0,1,875,105) translate(4.296296296296276 34.333333333333336)"/><use xlink:href="#u" transform="matrix(1,0,0,1,875,105) translate(112.37037037037037 34.333333333333336)"/><use xlink:href="#v" transform="matrix(1,0,0,1,875,105) translate(164.22222222222223 34.333333333333336)"/><use xlink:href="#w" transform="matrix(1,0,0,1,875,105) translate(17.51851851851852 66.33333333333334)"/><use xlink:href="#x" transform="matrix(1,0,0,1,875,105) translate(217.66666666666669 66.33333333333334)"/><path d="M1000 201v175.5" stroke="#000" stroke-width="2" fill="none"/><path d="M1001 201h-2v-1h2zM1000 391.5l-4.64-14.25h9.28z"/><path d="M1000 394.75l-6-18.5h12zm-3.26-16.5l3.26 10.03 3.26-10.03z"/><path d="M1285 386v-21.26" stroke="#000" stroke-width="2" fill="none"/><path d="M1286 387h-2v-1h2zM1289.64 364h-9.28l4.64-14.26z"/><path d="M1291 365h-12l6-18.5zm-9.26-2h6.52l-3.26-10.03z"/><path d="M1285 279v-14.26" stroke="#000" stroke-width="2" fill="none"/><path d="M1286 280h-2v-1h2zM1289.64 264h-9.28l4.64-14.26z"/><path d="M1291 265h-12l6-18.5zm-9.26-2h6.52l-3.26-10.03z"/><path d="M1225 195c0-8.28 6.72-15 15-15h90c8.28 0 15 6.72 15 15v35.5c0 8.28-6.72 15-15 15h-90c-8.28 0-15-6.72-15-15z" stroke="#000" stroke-width="2" fill="#fff"/><use xlink:href="#c" transform="matrix(1,0,0,1,1230,185) translate(24.999999999999996 33.333333333333336)"/><use xlink:href="#d" transform="matrix(1,0,0,1,1230,185) translate(47.22222222222222 33.333333333333336)"/><use xlink:href="#y" transform="matrix(1,0,0,1,1230,185) translate(70.18518518518519 33.333333333333336)"/><path d="M1285 179v-29h-135.76" stroke="#000" stroke-width="2" fill="none"/><path d="M1286 180h-2v-1h2zM1148.5 154.64l-14.26-4.64 14.26-4.64z"/><path d="M1149.5 156l-18.5-6 18.5-6zm-12.03-6l10.03 3.26v-6.52z"/><path d="M1360 115c0-8.28 6.72-15 15-15h90c8.28 0 15 6.72 15 15v60c0 8.28-6.72 15-15 15h-90c-8.28 0-15-6.72-15-15z" stroke="#000" stroke-width="2" fill="#fff"/><g><use xlink:href="#c" transform="matrix(1,0,0,1,1365,105) translate(17.222222222222214 45.333333333333336)"/><use xlink:href="#z" transform="matrix(1,0,0,1,1365,105) translate(39.44444444444444 45.333333333333336)"/><use xlink:href="#A" transform="matrix(1,0,0,1,1365,105) translate(77.96296296296296 45.333333333333336)"/></g><path d="M1421 641h-339.33v-2H1419v-38.33h2zm0-72.33h-2V209.24h2zM1081.67 641h-3l1.33-1-1.33-1h3zM1424.64 208.5h-9.28l4.64-14.26z"/><path d="M1426 209.5h-12l6-18.5zm-9.26-2h6.52l-3.26-10.03z"/><g><use xlink:href="#m" transform="matrix(1,0,0,1,1403,568.6666665) translate(0 21.333333333333336)"/></g><path d="M1359 150h-209.76" stroke="#000" stroke-width="2" fill="none"/><path d="M1360 151h-1v-2h1zM1148.5 154.64l-14.26-4.64 14.26-4.64z"/><path d="M1149.5 156l-18.5-6 18.5-6zm-12.03-6l10.03 3.26v-6.52z"/><path d="M821 150h29.76" stroke="#000" stroke-width="2" fill="none"/><path d="M821 151h-1v-2h1zM865.76 150l-14.26 4.64v-9.28z"/><path d="M869 150l-18.5 6v-12zm-16.5 3.26l10.03-3.26-10.03-3.26zM827.93 641h-28.7v-2h28.7zm90.4 0H871.4v-2h46.93zM920 640l1.33 1h-3v-2h3zM798.5 644.64L784.24 640l14.26-4.64z"/><path d="M799.5 646l-18.5-6 18.5-6zm-12.03-6l10.03 3.26v-6.52z"/><g><use xlink:href="#f" transform="matrix(1,0,0,1,827.9262377108072,624) translate(0 21.333333333333336)"/></g><defs><path d="M33 0v-248h34V0H33" id="B"/><path d="M135-143c-3-34-86-38-87 0 15 53 115 12 119 90S17 21 10-45l28-5c4 36 97 45 98 0-10-56-113-15-118-90-4-57 82-63 122-42 12 7 21 19 24 35" id="C"/><g id="a"><use transform="matrix(0.07407407407407408,0,0,0.07407407407407408,0,0)" xlink:href="#B"/><use transform="matrix(0.07407407407407408,0,0,0.07407407407407408,7.407407407407408,0)" xlink:href="#C"/></g><path d="M127-220V0H93v-220H8v-28h204v28h-85" id="D"/><path d="M84 4C-5 8 30-112 23-190h32v120c0 31 7 50 39 49 72-2 45-101 50-169h31l1 190h-30c-1-10 1-25-2-33-11 22-28 36-60 37" id="E"/><path d="M117-194c89-4 53 116 60 194h-32v-121c0-31-8-49-39-48C34-167 62-67 57 0H25l-1-190h30c1 10-1 24 2 32 11-22 29-35 61-36" id="F"/><path d="M100-194c63 0 86 42 84 106H49c0 40 14 67 53 68 26 1 43-12 49-29l28 8c-11 28-37 45-77 45C44 4 14-33 15-96c1-61 26-98 85-98zm52 81c6-60-76-77-97-28-3 7-6 17-6 28h103" id="G"/><path d="M85-194c31 0 48 13 60 33l-1-100h32l1 261h-30c-2-10 0-23-3-31C134-8 116 4 85 4 32 4 16-35 15-94c0-66 23-100 70-100zm9 24c-40 0-46 34-46 75 0 40 6 74 45 74 42 0 51-32 51-76 0-42-9-74-50-73" id="H"/><path d="M103-251c84 0 111 97 45 133-19 10-37 24-39 52H78c0-63 77-55 77-114 0-30-21-42-52-43-32 0-53 17-56 46l-32-2c7-45 34-72 88-72zM77 0v-35h34V0H77" id="I"/><g id="b"><use transform="matrix(0.07407407407407408,0,0,0.07407407407407408,0,0)" xlink:href="#D"/><use transform="matrix(0.07407407407407408,0,0,0.07407407407407408,15.259259259259261,0)" xlink:href="#E"/><use transform="matrix(0.07407407407407408,0,0,0.07407407407407408,30.07407407407408,0)" xlink:href="#F"/><use transform="matrix(0.07407407407407408,0,0,0.07407407407407408,44.88888888888889,0)" xlink:href="#G"/><use transform="matrix(0.07407407407407408,0,0,0.07407407407407408,59.70370370370371,0)" xlink:href="#H"/><use transform="matrix(0.07407407407407408,0,0,0.07407407407407408,74.51851851851853,0)" xlink:href="#I"/></g><use transform="matrix(0.07407407407407408,0,0,0.07407407407407408,0,0)" xlink:href="#F" id="c"/><path d="M18-150v-26h174v26H18zm0 90v-26h174v26H18" id="J"/><use transform="matrix(0.07407407407407408,0,0,0.07407407407407408,0,0)" xlink:href="#J" id="d"/><path d="M-5 72V49h209v23H-5" id="K"/><path d="M210-169c-67 3-38 105-44 169h-31v-121c0-29-5-50-35-48C34-165 62-65 56 0H25l-1-190h30c1 10-1 24 2 32 10-44 99-50 107 0 11-21 27-35 58-36 85-2 47 119 55 194h-31v-121c0-29-5-49-35-48" id="L"/><path d="M141-36C126-15 110 5 73 4 37 3 15-17 15-53c-1-64 63-63 125-63 3-35-9-54-41-54-24 1-41 7-42 31l-33-3c5-37 33-52 76-52 45 0 72 20 72 64v82c-1 20 7 32 28 27v20c-31 9-61-2-59-35zM48-53c0 20 12 33 32 33 41-3 63-29 60-74-43 2-92-5-92 41" id="M"/><path d="M141 0L90-78 38 0H4l68-98-65-92h35l48 74 47-74h35l-64 92 68 98h-35" id="N"/><g id="e"><use transform="matrix(0.07407407407407408,0,0,0.07407407407407408,0,0)" xlink:href="#F"/><use transform="matrix(0.07407407407407408,0,0,0.07407407407407408,14.814814814814817,0)" xlink:href="#K"/><use transform="matrix(0.07407407407407408,0,0,0.07407407407407408,29.629629629629633,0)" xlink:href="#L"/><use transform="matrix(0.07407407407407408,0,0,0.07407407407407408,51.777777777777786,0)" xlink:href="#M"/><use transform="matrix(0.07407407407407408,0,0,0.07407407407407408,66.59259259259261,0)" xlink:href="#N"/><use transform="matrix(0.07407407407407408,0,0,0.07407407407407408,79.92592592592595,0)" xlink:href="#I"/></g><path d="M137-103V0h-34v-103L8-248h37l75 118 75-118h37" id="O"/><g id="f"><use transform="matrix(0.07407407407407408,0,0,0.07407407407407408,0,0)" xlink:href="#O"/><use transform="matrix(0.07407407407407408,0,0,0.07407407407407408,15.333333333333334,0)" xlink:href="#G"/><use transform="matrix(0.07407407407407408,0,0,0.07407407407407408,30.148148148148152,0)" xlink:href="#C"/></g><path d="M30-248c87 1 191-15 191 75 0 78-77 80-158 76V0H30v-248zm33 125c57 0 124 11 124-50 0-59-68-47-124-48v98" id="P"/><path d="M114-163C36-179 61-72 57 0H25l-1-190h30c1 12-1 29 2 39 6-27 23-49 58-41v29" id="Q"/><path d="M59-47c-2 24 18 29 38 22v24C64 9 27 4 27-40v-127H5v-23h24l9-43h21v43h35v23H59v120" id="R"/><g id="g"><use transform="matrix(0.07407407407407408,0,0,0.07407407407407408,0,0)" xlink:href="#P"/><use transform="matrix(0.07407407407407408,0,0,0.07407407407407408,17.77777777777778,0)" xlink:href="#M"/><use transform="matrix(0.07407407407407408,0,0,0.07407407407407408,32.592592592592595,0)" xlink:href="#Q"/><use transform="matrix(0.07407407407407408,0,0,0.07407407407407408,41.40740740740741,0)" xlink:href="#M"/><use transform="matrix(0.07407407407407408,0,0,0.07407407407407408,56.22222222222223,0)" xlink:href="#L"/><use transform="matrix(0.07407407407407408,0,0,0.07407407407407408,78.37037037037038,0)" xlink:href="#G"/><use transform="matrix(0.07407407407407408,0,0,0.07407407407407408,93.18518518518519,0)" xlink:href="#R"/><use transform="matrix(0.07407407407407408,0,0,0.07407407407407408,100.5925925925926,0)" xlink:href="#G"/><use transform="matrix(0.07407407407407408,0,0,0.07407407407407408,115.40740740740742,0)" xlink:href="#Q"/><use transform="matrix(0.07407407407407408,0,0,0.07407407407407408,124.22222222222223,0)" xlink:href="#D"/><use transform="matrix(0.07407407407407408,0,0,0.07407407407407408,139.4814814814815,0)" xlink:href="#E"/><use transform="matrix(0.07407407407407408,0,0,0.07407407407407408,154.2962962962963,0)" xlink:href="#F"/><use transform="matrix(0.07407407407407408,0,0,0.07407407407407408,169.1111111111111,0)" xlink:href="#G"/><use transform="matrix(0.07407407407407408,0,0,0.07407407407407408,183.92592592592592,0)" xlink:href="#Q"/></g><use transform="matrix(0.07407407407407408,0,0,0.07407407407407408,0,0)" xlink:href="#F" id="h"/><path d="M96-169c-40 0-48 33-48 73s9 75 48 75c24 0 41-14 43-38l32 2c-6 37-31 61-74 61-59 0-76-41-82-99-10-93 101-131 147-64 4 7 5 14 7 22l-32 3c-4-21-16-35-41-35" id="S"/><path d="M24 0v-261h32V0H24" id="T"/><g id="j"><use transform="matrix(0.07407407407407408,0,0,0.07407407407407408,0,0)" xlink:href="#S"/><use transform="matrix(0.07407407407407408,0,0,0.07407407407407408,13.333333333333336,0)" xlink:href="#M"/><use transform="matrix(0.07407407407407408,0,0,0.07407407407407408,28.148148148148152,0)" xlink:href="#T"/><use transform="matrix(0.07407407407407408,0,0,0.07407407407407408,34.00000000000001,0)" xlink:href="#S"/><use transform="matrix(0.07407407407407408,0,0,0.07407407407407408,47.33333333333334,0)" xlink:href="#E"/><use transform="matrix(0.07407407407407408,0,0,0.07407407407407408,62.14814814814816,0)" xlink:href="#T"/><use transform="matrix(0.07407407407407408,0,0,0.07407407407407408,68.00000000000001,0)" xlink:href="#M"/><use transform="matrix(0.07407407407407408,0,0,0.07407407407407408,82.81481481481484,0)" xlink:href="#R"/><use transform="matrix(0.07407407407407408,0,0,0.07407407407407408,90.22222222222226,0)" xlink:href="#G"/></g><g id="k"><use transform="matrix(0.07407407407407408,0,0,0.07407407407407408,0,0)" xlink:href="#F"/><use transform="matrix(0.07407407407407408,0,0,0.07407407407407408,14.814814814814817,0)" xlink:href="#G"/><use transform="matrix(0.07407407407407408,0,0,0.07407407407407408,29.629629629629633,0)" xlink:href="#N"/><use transform="matrix(0.07407407407407408,0,0,0.07407407407407408,42.96296296296297,0)" xlink:href="#R"/></g><path d="M108 0H70L1-190h34L89-25l56-165h34" id="U"/><path d="M100-194c62-1 85 37 85 99 1 63-27 99-86 99S16-35 15-95c0-66 28-99 85-99zM99-20c44 1 53-31 53-75 0-43-8-75-51-75s-53 32-53 75 10 74 51 75" id="V"/><path d="M177-190C167-65 218 103 67 71c-23-6-38-20-44-43l32-5c15 47 100 32 89-28v-30C133-14 115 1 83 1 29 1 15-40 15-95c0-56 16-97 71-98 29-1 48 16 59 35 1-10 0-23 2-32h30zM94-22c36 0 50-32 50-73 0-42-14-75-50-75-39 0-46 34-46 75s6 73 46 73" id="W"/><g id="l"><use transform="matrix(0.07407407407407408,0,0,0.07407407407407408,0,0)" xlink:href="#U"/><use transform="matrix(0.07407407407407408,0,0,0.07407407407407408,13.333333333333336,0)" xlink:href="#V"/><use transform="matrix(0.07407407407407408,0,0,0.07407407407407408,28.148148148148152,0)" xlink:href="#T"/><use transform="matrix(0.07407407407407408,0,0,0.07407407407407408,34.00000000000001,0)" xlink:href="#R"/><use transform="matrix(0.07407407407407408,0,0,0.07407407407407408,41.40740740740742,0)" xlink:href="#M"/><use transform="matrix(0.07407407407407408,0,0,0.07407407407407408,56.222222222222236,0)" xlink:href="#W"/><use transform="matrix(0.07407407407407408,0,0,0.07407407407407408,71.03703703703705,0)" xlink:href="#G"/><use transform="matrix(0.07407407407407408,0,0,0.07407407407407408,85.85185185185188,0)" xlink:href="#C"/></g><path d="M190 0L58-211 59 0H30v-248h39L202-35l-2-213h31V0h-41" id="X"/><g id="m"><use transform="matrix(0.07407407407407408,0,0,0.07407407407407408,0,0)" xlink:href="#X"/><use transform="matrix(0.07407407407407408,0,0,0.07407407407407408,19.185185185185187,0)" xlink:href="#V"/></g><g id="n"><use transform="matrix(0.07407407407407408,0,0,0.07407407407407408,0,0)" xlink:href="#C"/><use transform="matrix(0.07407407407407408,0,0,0.07407407407407408,13.333333333333336,0)" xlink:href="#G"/><use transform="matrix(0.07407407407407408,0,0,0.07407407407407408,28.148148148148152,0)" xlink:href="#R"/></g><path d="M24-231v-30h32v30H24zM24 0v-190h32V0H24" id="Y"/><g id="o"><use transform="matrix(0.07407407407407408,0,0,0.07407407407407408,0,0)" xlink:href="#Y"/><use transform="matrix(0.07407407407407408,0,0,0.07407407407407408,5.851851851851853,0)" xlink:href="#F"/><use transform="matrix(0.07407407407407408,0,0,0.07407407407407408,20.666666666666668,0)" xlink:href="#Y"/><use transform="matrix(0.07407407407407408,0,0,0.07407407407407408,26.518518518518526,0)" xlink:href="#R"/><use transform="matrix(0.07407407407407408,0,0,0.07407407407407408,33.92592592592594,0)" xlink:href="#Y"/><use transform="matrix(0.07407407407407408,0,0,0.07407407407407408,39.77777777777779,0)" xlink:href="#M"/><use transform="matrix(0.07407407407407408,0,0,0.07407407407407408,54.59259259259261,0)" xlink:href="#T"/></g><path d="M33-154v-36h34v36H33zM33 0v-36h34V0H33" id="Z"/><g id="p"><use transform="matrix(0.07407407407407408,0,0,0.07407407407407408,0,0)" xlink:href="#S"/><use transform="matrix(0.07407407407407408,0,0,0.07407407407407408,13.333333333333336,0)" xlink:href="#V"/><use transform="matrix(0.07407407407407408,0,0,0.07407407407407408,28.148148148148152,0)" xlink:href="#F"/><use transform="matrix(0.07407407407407408,0,0,0.07407407407407408,42.96296296296297,0)" xlink:href="#H"/><use transform="matrix(0.07407407407407408,0,0,0.07407407407407408,57.777777777777786,0)" xlink:href="#Y"/><use transform="matrix(0.07407407407407408,0,0,0.07407407407407408,63.62962962962964,0)" xlink:href="#R"/><use transform="matrix(0.07407407407407408,0,0,0.07407407407407408,71.03703703703705,0)" xlink:href="#Y"/><use transform="matrix(0.07407407407407408,0,0,0.07407407407407408,76.8888888888889,0)" xlink:href="#V"/><use transform="matrix(0.07407407407407408,0,0,0.07407407407407408,91.70370370370371,0)" xlink:href="#F"/><use transform="matrix(0.07407407407407408,0,0,0.07407407407407408,106.51851851851853,0)" xlink:href="#C"/><use transform="matrix(0.07407407407407408,0,0,0.07407407407407408,119.85185185185186,0)" xlink:href="#Z"/></g><use transform="matrix(0.07407407407407408,0,0,0.07407407407407408,0,0)" xlink:href="#F" id="q"/><path d="M101-251c68 0 85 55 85 127S166 4 100 4C33 4 14-52 14-124c0-73 17-127 87-127zm-1 229c47 0 54-49 54-102s-4-102-53-102c-51 0-55 48-55 102 0 53 5 102 54 102" id="aa"/><use transform="matrix(0.07407407407407408,0,0,0.07407407407407408,0,0)" xlink:href="#aa" id="r"/><g id="t"><use transform="matrix(0.07407407407407408,0,0,0.07407407407407408,0,0)" xlink:href="#G"/><use transform="matrix(0.07407407407407408,0,0,0.07407407407407408,14.814814814814817,0)" xlink:href="#U"/><use transform="matrix(0.07407407407407408,0,0,0.07407407407407408,28.148148148148152,0)" xlink:href="#M"/><use transform="matrix(0.07407407407407408,0,0,0.07407407407407408,42.96296296296297,0)" xlink:href="#T"/><use transform="matrix(0.07407407407407408,0,0,0.07407407407407408,48.814814814814824,0)" xlink:href="#E"/><use transform="matrix(0.07407407407407408,0,0,0.07407407407407408,63.62962962962964,0)" xlink:href="#M"/><use transform="matrix(0.07407407407407408,0,0,0.07407407407407408,78.44444444444446,0)" xlink:href="#R"/><use transform="matrix(0.07407407407407408,0,0,0.07407407407407408,85.85185185185186,0)" xlink:href="#G"/></g><g id="u"><use transform="matrix(0.07407407407407408,0,0,0.07407407407407408,0,0)" xlink:href="#M"/><use transform="matrix(0.07407407407407408,0,0,0.07407407407407408,14.814814814814817,0)" xlink:href="#F"/><use transform="matrix(0.07407407407407408,0,0,0.07407407407407408,29.629629629629633,0)" xlink:href="#H"/></g><path d="M115-194c55 1 70 41 70 98S169 2 115 4C84 4 66-9 55-30l1 105H24l-1-265h31l2 30c10-21 28-34 59-34zm-8 174c40 0 45-34 45-75s-6-73-45-74c-42 0-51 32-51 76 0 43 10 73 51 73" id="ab"/><g id="v"><use transform="matrix(0.07407407407407408,0,0,0.07407407407407408,0,0)" xlink:href="#E"/><use transform="matrix(0.07407407407407408,0,0,0.07407407407407408,14.814814814814817,0)" xlink:href="#ab"/><use transform="matrix(0.07407407407407408,0,0,0.07407407407407408,29.629629629629633,0)" xlink:href="#H"/><use transform="matrix(0.07407407407407408,0,0,0.07407407407407408,44.44444444444445,0)" xlink:href="#M"/><use transform="matrix(0.07407407407407408,0,0,0.07407407407407408,59.25925925925927,0)" xlink:href="#R"/><use transform="matrix(0.07407407407407408,0,0,0.07407407407407408,66.66666666666667,0)" xlink:href="#G"/></g><g id="w"><use transform="matrix(0.07407407407407408,0,0,0.07407407407407408,0,0)" xlink:href="#P"/><use transform="matrix(0.07407407407407408,0,0,0.07407407407407408,17.77777777777778,0)" xlink:href="#M"/><use transform="matrix(0.07407407407407408,0,0,0.07407407407407408,32.592592592592595,0)" xlink:href="#Q"/><use transform="matrix(0.07407407407407408,0,0,0.07407407407407408,41.40740740740741,0)" xlink:href="#M"/><use transform="matrix(0.07407407407407408,0,0,0.07407407407407408,56.22222222222223,0)" xlink:href="#L"/><use transform="matrix(0.07407407407407408,0,0,0.07407407407407408,78.37037037037038,0)" xlink:href="#G"/><use transform="matrix(0.07407407407407408,0,0,0.07407407407407408,93.18518518518519,0)" xlink:href="#R"/><use transform="matrix(0.07407407407407408,0,0,0.07407407407407408,100.5925925925926,0)" xlink:href="#G"/><use transform="matrix(0.07407407407407408,0,0,0.07407407407407408,115.40740740740742,0)" xlink:href="#Q"/><use transform="matrix(0.07407407407407408,0,0,0.07407407407407408,124.22222222222223,0)" xlink:href="#D"/><use transform="matrix(0.07407407407407408,0,0,0.07407407407407408,139.4814814814815,0)" xlink:href="#E"/><use transform="matrix(0.07407407407407408,0,0,0.07407407407407408,154.2962962962963,0)" xlink:href="#F"/><use transform="matrix(0.07407407407407408,0,0,0.07407407407407408,169.1111111111111,0)" xlink:href="#G"/><use transform="matrix(0.07407407407407408,0,0,0.07407407407407408,183.92592592592592,0)" xlink:href="#Q"/></g><use transform="matrix(0.07407407407407408,0,0,0.07407407407407408,0,0)" xlink:href="#F" id="x"/><use transform="matrix(0.07407407407407408,0,0,0.07407407407407408,0,0)" xlink:href="#aa" id="y"/><path d="M118-107v75H92v-75H18v-26h74v-75h26v75h74v26h-74" id="ac"/><g id="z"><use transform="matrix(0.07407407407407408,0,0,0.07407407407407408,0,0)" xlink:href="#ac"/><use transform="matrix(0.07407407407407408,0,0,0.07407407407407408,15.555555555555557,0)" xlink:href="#J"/></g><path d="M27 0v-27h64v-190l-56 39v-29l58-41h29v221h61V0H27" id="ad"/><use transform="matrix(0.07407407407407408,0,0,0.07407407407407408,0,0)" xlink:href="#ad" id="A"/></defs></g></svg>